<?xml version="1.0" standalone="no"?>
<!DOCTYPE svg PUBLIC "-//W3C//DTD SVG 20010904//EN"
 "http://www.w3.org/TR/2001/REC-SVG-20010904/DTD/svg10.dtd">
<svg version="1.0" xmlns="http://www.w3.org/2000/svg"
 width="497.000000pt" height="121.000000pt" viewBox="0 0 497.000000 121.000000"
 preserveAspectRatio="xMidYMid meet">
<style> @media (prefers-color-scheme:dark) {
        svg {
           filter: invert(0.9);
        }
      }</style>
<g transform="translate(0.000000,121.000000) scale(0.100000,-0.100000)"
fill="#000000" stroke="none">
<path d="M2622 708 l3 -333 70 0 70 0 5 137 c5 148 10 161 62 173 21 5 33 1
52 -19 25 -24 26 -29 26 -161 l0 -136 73 3 72 3 0 160 c0 181 -10 214 -75 248
-48 25 -139 19 -180 -11 l-30 -23 0 146 0 145 -75 0 -75 0 2 -332z"/>
<path d="M4050 705 l0 -335 75 0 75 0 0 335 0 335 -75 0 -75 0 0 -335z"/>
<path d="M220 988 c0 -7 40 -148 88 -313 l88 -300 78 0 79 0 61 183 61 183 61
-183 60 -183 80 -3 79 -3 88 308 c48 169 88 311 87 316 0 4 -35 7 -77 7 l-78
0 -55 -209 -54 -208 -66 206 -66 206 -58 0 -58 0 -67 -206 -66 -206 -55 208
-55 209 -77 0 c-56 0 -78 -4 -78 -12z"/>
<path d="M2230 860 c0 -57 -1 -60 -25 -60 -24 0 -25 -2 -25 -64 0 -59 2 -65
23 -68 21 -3 22 -8 27 -108 3 -58 11 -115 18 -127 17 -31 83 -63 143 -70 l49
-6 0 62 c0 54 -2 61 -19 61 -44 0 -51 31 -51 242 l0 198 -70 0 -70 0 0 -60z"/>
<path d="M1265 799 c-45 -13 -105 -67 -126 -113 -36 -79 -20 -197 34 -254 45
-49 95 -67 187 -67 75 0 91 3 131 27 34 20 51 38 63 68 9 22 16 45 16 50 0 6
-31 10 -70 10 -40 0 -70 -4 -70 -10 0 -5 -9 -19 -20 -30 -23 -23 -85 -27 -112
-6 -16 12 -38 56 -38 77 0 5 66 9 156 9 l157 0 -7 52 c-4 29 -17 73 -30 98
-40 81 -162 121 -271 89z m148 -106 c9 -9 17 -24 17 -35 0 -16 -9 -18 -80 -18
-71 0 -80 2 -80 18 0 54 96 77 143 35z"/>
<path d="M1772 799 c-46 -14 -115 -85 -130 -135 -26 -88 -6 -182 51 -243 60
-63 147 -79 222 -41 34 17 40 18 48 5 6 -11 26 -15 77 -15 l70 0 0 215 0 215
-71 0 c-60 0 -72 -3 -76 -18 -4 -18 -7 -17 -50 5 -49 24 -86 27 -141 12z m149
-132 c24 -18 39 -52 39 -87 0 -42 -15 -67 -51 -85 -25 -13 -37 -14 -65 -5 -43
15 -64 44 -64 93 0 72 88 125 141 84z"/>
<path d="M3266 795 c-93 -33 -136 -98 -136 -207 0 -81 15 -121 61 -165 113
-107 344 -72 377 57 l10 40 -65 0 c-59 0 -66 -2 -90 -30 -20 -24 -33 -30 -64
-30 -47 0 -89 35 -89 75 l0 25 155 0 155 0 -6 43 c-19 140 -92 208 -224 207
-25 -1 -63 -7 -84 -15z m157 -107 c34 -40 23 -48 -62 -48 -44 0 -82 4 -85 8
-8 13 23 52 48 62 30 13 78 2 99 -22z"/>
<path d="M4299 708 c27 -51 72 -133 99 -183 l49 -90 -63 -127 -64 -128 72 0
73 0 158 305 c86 167 157 306 157 309 0 3 -33 6 -72 6 l-73 0 -55 -105 -55
-105 -53 105 -52 105 -86 0 -85 0 50 -92z"/>
<path d="M3650 580 l0 -210 75 0 75 0 0 210 0 210 -75 0 -75 0 0 -210z"/>
</g>
</svg>
